<svg width="520" height="980" viewBox="0 0 520 980" fill="none" xmlns="http://www.w3.org/2000/svg">
  <defs>
    <linearGradient id="holoSkin" x1="0" y1="0" x2="0" y2="980" gradientUnits="userSpaceOnUse">
      <stop offset="0" stop-color="#7ee6ff" stop-opacity="0.95" />
      <stop offset="0.45" stop-color="#4fb4ff" stop-opacity="0.75" />
      <stop offset="1" stop-color="#2b6bff" stop-opacity="0.6" />
    </linearGradient>
    <linearGradient id="holoCore" x1="0" y1="0" x2="0" y2="980" gradientUnits="userSpaceOnUse">
      <stop offset="0" stop-color="#b1f1ff" stop-opacity="0.85" />
      <stop offset="1" stop-color="#67b7ff" stop-opacity="0.55" />
    </linearGradient>
    <radialGradient id="organGlow" cx="0" cy="0" r="1" gradientUnits="userSpaceOnUse" gradientTransform="translate(260 420) rotate(90) scale(260 180)">
      <stop offset="0" stop-color="#ff7b7b" stop-opacity="0.7" />
      <stop offset="1" stop-color="#ff7b7b" stop-opacity="0" />
    </radialGradient>
    <linearGradient id="scan" x1="0" y1="0" x2="0" y2="980" gradientUnits="userSpaceOnUse">
      <stop offset="0" stop-color="#b1f1ff" stop-opacity="0" />
      <stop offset="0.5" stop-color="#b1f1ff" stop-opacity="0.25" />
      <stop offset="1" stop-color="#b1f1ff" stop-opacity="0" />
    </linearGradient>
  </defs>

  <rect x="218" y="30" width="84" height="92" rx="38" fill="url(#holoSkin)" />
  <path d="M110 180C110 120 158 78 218 78H302C362 78 410 120 410 180V300C410 360 362 402 302 402H218C158 402 110 360 110 300V180Z" fill="url(#holoSkin)" />
  <path d="M128 174C128 130 164 100 208 100H312C356 100 392 130 392 174V292C392 336 356 366 312 366H208C164 366 128 336 128 292V174Z" fill="url(#holoCore)" />
  <rect x="92" y="190" width="52" height="220" rx="26" fill="url(#holoSkin)" />
  <rect x="376" y="190" width="52" height="220" rx="26" fill="url(#holoSkin)" />
  <path d="M150 390C150 356 178 330 212 330H308C342 330 370 356 370 390V610C370 644 342 670 308 670H212C178 670 150 644 150 610V390Z" fill="url(#holoSkin)" />
  <path d="M168 400C168 372 192 350 220 350H300C328 350 352 372 352 400V596C352 624 328 646 300 646H220C192 646 168 624 168 596V400Z" fill="url(#holoCore)" />
  <rect x="170" y="650" width="66" height="250" rx="30" fill="url(#holoSkin)" />
  <rect x="284" y="650" width="66" height="250" rx="30" fill="url(#holoSkin)" />

  <ellipse cx="260" cy="420" rx="80" ry="120" fill="url(#organGlow)" />
  <path d="M220 390C220 360 300 360 300 390C300 420 220 420 220 390Z" fill="#ff8787" opacity="0.7" />
  <path d="M230 465C230 445 290 445 290 465C290 485 230 485 230 465Z" fill="#ff5f5f" opacity="0.6" />

  <g opacity="0.35">
    <rect x="110" y="150" width="300" height="6" fill="#c9f5ff" />
    <rect x="110" y="210" width="300" height="6" fill="#c9f5ff" />
    <rect x="110" y="270" width="300" height="6" fill="#c9f5ff" />
    <rect x="110" y="330" width="300" height="6" fill="#c9f5ff" />
    <rect x="110" y="390" width="300" height="6" fill="#c9f5ff" />
    <rect x="110" y="450" width="300" height="6" fill="#c9f5ff" />
    <rect x="110" y="510" width="300" height="6" fill="#c9f5ff" />
    <rect x="110" y="570" width="300" height="6" fill="#c9f5ff" />
    <rect x="110" y="630" width="300" height="6" fill="#c9f5ff" />
    <rect x="110" y="690" width="300" height="6" fill="#c9f5ff" />
    <rect x="110" y="750" width="300" height="6" fill="#c9f5ff" />
  </g>

  <rect x="90" y="120" width="340" height="740" rx="110" fill="url(#scan)" />
</svg>
