<svg width="520" height="980" viewBox="0 0 520 980" fill="none" xmlns="http://www.w3.org/2000/svg">
  <defs>
    <linearGradient id="skin" x1="0" y1="0" x2="0" y2="980" gradientUnits="userSpaceOnUse">
      <stop offset="0" stop-color="#f7d9c4" />
      <stop offset="0.55" stop-color="#f0cbb6" />
      <stop offset="1" stop-color="#e5bca7" />
    </linearGradient>
    <linearGradient id="shadow" x1="0" y1="0" x2="0" y2="980" gradientUnits="userSpaceOnUse">
      <stop offset="0" stop-color="#c4a18e" stop-opacity="0.2" />
      <stop offset="1" stop-color="#8b6f62" stop-opacity="0.35" />
    </linearGradient>
    <radialGradient id="core" cx="0" cy="0" r="1" gradientUnits="userSpaceOnUse" gradientTransform="translate(260 360) rotate(90) scale(320 180)">
      <stop offset="0" stop-color="#f9e4d6" />
      <stop offset="1" stop-color="#e7c5b4" />
    </radialGradient>
  </defs>
  <rect x="218" y="30" width="84" height="92" rx="38" fill="url(#skin)" />
  <path d="M110 180C110 120 158 78 218 78H302C362 78 410 120 410 180V300C410 360 362 402 302 402H218C158 402 110 360 110 300V180Z" fill="url(#skin)" />
  <path d="M128 174C128 130 164 100 208 100H312C356 100 392 130 392 174V292C392 336 356 366 312 366H208C164 366 128 336 128 292V174Z" fill="url(#core)" />
  <rect x="92" y="190" width="52" height="220" rx="26" fill="url(#skin)" />
  <rect x="376" y="190" width="52" height="220" rx="26" fill="url(#skin)" />
  <path d="M150 390C150 356 178 330 212 330H308C342 330 370 356 370 390V610C370 644 342 670 308 670H212C178 670 150 644 150 610V390Z" fill="url(#skin)" />
  <path d="M168 400C168 372 192 350 220 350H300C328 350 352 372 352 400V596C352 624 328 646 300 646H220C192 646 168 624 168 596V400Z" fill="url(#core)" />
  <rect x="170" y="650" width="66" height="250" rx="30" fill="url(#skin)" />
  <rect x="284" y="650" width="66" height="250" rx="30" fill="url(#skin)" />
  <ellipse cx="210" cy="430" rx="40" ry="62" fill="url(#shadow)" />
  <ellipse cx="310" cy="430" rx="40" ry="62" fill="url(#shadow)" />
  <path d="M240 480C240 450 280 450 280 480C280 510 240 510 240 480Z" fill="#d98370" opacity="0.4" />
  <path d="M220 520C220 500 300 500 300 520C300 540 220 540 220 520Z" fill="#d98370" opacity="0.25" />
</svg>
